<svg viewBox="0 0 539 381" fill="none" xmlns="http://www.w3.org/2000/svg">
    <path d="M524.881 255.652C524.91 257.965 524.48 260.261 523.615 262.407C522.75 264.553 521.467 266.505 519.841 268.151C518.216 269.797 516.279 271.104 514.145 271.995C512.01 272.887 509.719 273.346 507.406 273.345H382.593C384.406 276.66 385.097 280.474 384.561 284.215C384.026 287.955 382.293 291.422 379.622 294.095C378.602 295.11 377.464 295.999 376.233 296.743H399.29C408.934 296.743 417.097 304.356 417.221 313.99C417.249 316.303 416.818 318.599 415.953 320.745C415.087 322.89 413.805 324.843 412.179 326.489C410.554 328.135 408.618 329.443 406.484 330.335C404.349 331.228 402.059 331.689 399.746 331.69H285.136C281.311 331.689 277.592 330.434 274.549 328.116C271.506 325.799 269.308 322.547 268.291 318.86C267.273 315.173 267.494 311.254 268.918 307.704C270.342 304.154 272.891 301.17 276.175 299.208H207.518C197.874 299.208 189.711 291.595 189.587 281.961C189.547 278.841 190.342 275.768 191.892 273.06C193.441 270.352 195.686 268.108 198.396 266.561C195.557 265.088 193.178 262.863 191.517 260.13C189.857 257.396 188.979 254.259 188.98 251.061V229.661C188.977 226.928 189.616 224.233 190.846 221.793C192.076 219.352 193.862 217.235 196.061 215.612H72.6808C63.0458 215.612 54.8928 208.018 54.7498 198.393C54.7155 196.076 55.1423 193.776 56.0054 191.626C56.8685 189.476 58.1507 187.518 59.7773 185.869C61.4039 184.219 63.3425 182.909 65.4802 182.015C67.6178 181.121 69.9119 180.662 72.2289 180.663H80.9488C84.5293 180.663 87.9631 179.241 90.4948 176.709C93.0265 174.177 94.4488 170.743 94.4488 167.163V167.153C94.4488 163.573 93.0265 160.139 90.4948 157.607C87.9631 155.075 84.5293 153.653 80.9488 153.653H22.9039C18.2704 153.653 13.8267 151.812 10.5503 148.536C7.27399 145.26 5.43335 140.816 5.43335 136.182C5.43335 131.549 7.27399 127.105 10.5503 123.829C13.8267 120.553 18.2704 118.712 22.9039 118.712H106.829C111.462 118.713 115.906 116.874 119.184 113.598C122.461 110.323 124.303 105.879 124.304 101.246C124.305 96.6125 122.466 92.1684 119.19 88.8912C115.915 85.614 111.471 83.7722 106.838 83.771H82.8669C73.2129 83.771 65.0498 76.139 64.9458 66.486C64.9207 64.1755 65.3542 61.883 66.2211 59.7412C67.0881 57.5994 68.3713 55.6509 69.9964 54.0084C71.6216 52.3659 73.5565 51.0622 75.689 50.1726C77.8215 49.283 80.1092 48.8253 82.4198 48.826H241.82C251.208 48.826 259.267 56.05 259.72 65.437C259.874 68.5341 259.202 71.6165 257.774 74.369H463.353C467.986 74.369 472.43 76.2096 475.706 79.486C478.983 82.7623 480.823 87.206 480.823 91.8395C480.823 96.473 478.983 100.917 475.706 104.193C472.43 107.469 467.986 109.31 463.353 109.31H387.206C387.202 113.069 385.708 116.674 383.05 119.333C380.392 121.991 376.788 123.487 373.029 123.492H287.196C289.739 125.893 291.503 129.003 292.259 132.419C293.015 135.834 292.727 139.398 291.434 142.648C290.142 145.898 287.902 148.685 285.007 150.648C282.112 152.611 278.694 153.66 275.196 153.658H251.196C250.251 153.657 249.315 153.841 248.442 154.202C247.569 154.562 246.775 155.091 246.106 155.759C245.438 156.426 244.907 157.219 244.545 158.091C244.183 158.964 243.996 159.899 243.996 160.844V160.854C243.996 161.799 244.183 162.734 244.545 163.607C244.907 164.479 245.438 165.272 246.106 165.939C246.775 166.607 247.569 167.136 248.442 167.496C249.315 167.857 250.251 168.041 251.196 168.04H446.01C450.643 168.04 455.087 169.881 458.363 173.157C461.64 176.433 463.48 180.877 463.48 185.51C463.48 190.144 461.64 194.588 458.363 197.864C455.087 201.14 450.643 202.981 446.01 202.981H395.629C398.184 204.544 400.294 206.737 401.759 209.35C403.223 211.963 403.992 214.908 403.992 217.903V222.886C403.993 226.092 403.112 229.236 401.444 231.974C399.777 234.711 397.387 236.937 394.538 238.406H506.95C516.594 238.406 524.757 246.019 524.881 255.653" fill="#EDF6F7"/>
    <path d="M489.947 149.072V170.588" stroke="#008493" stroke-width="2" stroke-miterlimit="10" stroke-linecap="round"/>
    <path d="M479.188 159.83H500.704" stroke="#008493" stroke-width="2" stroke-miterlimit="10" stroke-linecap="round"/>
    <path d="M140.545 7.272V26.276" stroke="#008493" stroke-width="2" stroke-miterlimit="10" stroke-linecap="round"/>
    <path d="M131.043 16.774H150.047" stroke="#008493" stroke-width="2" stroke-miterlimit="10" stroke-linecap="round"/>
    <path d="M515.235 37.517C515.235 40.0178 514.493 42.4624 513.104 44.5417C511.714 46.621 509.739 48.2416 507.429 49.1986C505.118 50.1556 502.576 50.4059 500.123 49.918C497.671 49.43 495.418 48.2257 493.65 46.4573C491.881 44.6889 490.677 42.4359 490.189 39.9831C489.702 37.5303 489.952 34.988 490.909 32.6776C491.866 30.3673 493.487 28.3926 495.567 27.0034C497.646 25.6142 500.091 24.8728 502.592 24.873C504.252 24.873 505.896 25.2 507.43 25.8355C508.964 26.4709 510.358 27.4023 511.532 28.5764C512.706 29.7505 513.637 31.1444 514.272 32.6784C514.908 34.2124 515.235 35.8566 515.235 37.517Z" stroke="#008493" stroke-width="2" stroke-miterlimit="10"/>
    <path d="M26.3085 243.978C26.3095 246.479 25.5688 248.924 24.18 251.004C22.7912 253.084 20.8168 254.705 18.5064 255.663C16.196 256.621 13.6535 256.872 11.2005 256.385C8.74744 255.897 6.49402 254.693 4.72527 252.925C2.95651 251.157 1.75187 248.904 1.26371 246.451C0.775545 243.998 1.02579 241.455 1.98279 239.145C2.93979 236.834 4.56055 234.859 6.64009 233.47C8.71962 232.08 11.1645 231.339 13.6655 231.339C17.0179 231.339 20.2329 232.671 22.6038 235.041C24.9746 237.411 26.3072 240.626 26.3085 243.978Z" stroke="#008493" stroke-width="2" stroke-miterlimit="10"/>
    <path d="M537.98 217.542C537.979 218.752 537.62 219.935 536.948 220.942C536.275 221.948 535.319 222.732 534.201 223.195C533.083 223.658 531.852 223.78 530.665 223.543C529.478 223.307 528.388 222.724 527.532 221.868C526.676 221.013 526.093 219.922 525.857 218.735C525.621 217.548 525.742 216.318 526.205 215.199C526.668 214.081 527.453 213.125 528.459 212.453C529.465 211.78 530.648 211.421 531.859 211.421C533.482 211.421 535.039 212.066 536.187 213.214C537.335 214.362 537.98 215.919 537.98 217.542Z" stroke="#008493" stroke-width="2" stroke-miterlimit="10"/>
    <path d="M70.5465 192.927C70.5463 194.137 70.1873 195.32 69.5147 196.327C68.8422 197.333 67.8863 198.117 66.7681 198.58C65.6498 199.043 64.4194 199.165 63.2323 198.928C62.0453 198.692 60.9549 198.109 60.099 197.253C59.2432 196.398 58.6603 195.307 58.4242 194.12C58.188 192.933 58.3091 191.703 58.7722 190.584C59.2353 189.466 60.0195 188.51 61.0258 187.838C62.0321 187.165 63.2152 186.806 64.4255 186.806C66.0489 186.806 67.6058 187.451 68.7537 188.599C69.9016 189.747 70.5465 191.304 70.5465 192.927Z" stroke="#008493" stroke-width="2" stroke-miterlimit="10"/>
    <path d="M276.314 380.579C351.805 380.579 413.002 375.84 413.002 369.995C413.002 364.15 351.805 359.411 276.314 359.411C200.824 359.411 139.626 364.15 139.626 369.995C139.626 375.84 200.824 380.579 276.314 380.579Z" fill="#EDF6F7"/>
    <path d="M259.341 1.777L259.359 0H258.625L258.1 0.514L259.341 1.777ZM331.505 2.551L332.771 1.31L332.258 0.785L331.522 0.777L331.505 2.551ZM207.766 52.258L206.525 50.99L206 51.504L205.992 52.239L207.766 52.258ZM206.992 124.422L205.215 124.4L205.207 125.135L205.721 125.66L206.992 124.422ZM257.473 176L256.205 177.241L256.719 177.766L257.454 177.774L257.473 176ZM329.637 176.774L329.617 178.548L330.351 178.556L330.876 178.042L329.637 176.774ZM381.215 126.289L382.455 127.557L382.98 127.043L382.989 126.308L381.215 126.289ZM381.988 54.125L383.762 54.144L383.769 53.409L383.256 52.884L381.988 54.125ZM324.185 15.009L325.439 13.755L324.919 13.235H324.185V15.009ZM263.179 15.009V13.235H262.444L261.924 13.755L263.179 15.009ZM367.323 58.146H369.097V57.411L368.577 56.891L367.323 58.146ZM367.323 119.152L368.577 120.406L369.097 119.886V119.151L367.323 119.152ZM324.185 162.29V164.064H324.919L325.439 163.544L324.185 162.29ZM263.179 162.29L261.925 163.544L262.445 164.064H263.18L263.179 162.29ZM220.042 119.152H218.268V119.887L218.787 120.407L220.042 119.152ZM220.042 58.146L218.787 56.891L218.268 57.411V58.146H220.042ZM259.322 3.546L331.486 4.32L331.523 0.772L259.359 0L259.322 3.546ZM209.007 53.526L260.582 3.046L258.1 0.51L206.525 50.99L209.007 53.526ZM208.766 124.441L209.54 52.277L205.992 52.239L205.215 124.4L208.766 124.441ZM258.74 174.756L208.26 123.181L205.725 125.663L256.205 177.238L258.74 174.756ZM329.656 174.997L257.491 174.223L257.453 177.771L329.617 178.545L329.656 174.997ZM379.969 125.023L328.395 175.5L330.877 178.036L382.451 127.555L379.969 125.023ZM380.215 54.107L379.442 126.271L382.99 126.309L383.763 54.145L380.215 54.107ZM330.236 3.792L380.715 55.366L383.252 52.884L332.771 1.31L330.236 3.792ZM324.185 13.235H263.179L263.18 16.783H324.185V13.235ZM368.577 56.891L325.44 13.754L322.932 16.263L366.069 59.4L368.577 56.891ZM369.097 119.151V58.146H365.549V119.152L369.097 119.151ZM325.44 163.544L368.577 120.406L366.069 117.897L322.932 161.035L325.44 163.544ZM263.18 164.064H324.185V160.516H263.18V164.064ZM218.787 120.407L261.925 163.544L264.434 161.036L221.296 117.9L218.787 120.407ZM218.268 58.146V119.152L221.815 119.153V58.146H218.268ZM261.925 13.754L218.787 56.891L221.296 59.4L264.434 16.262L261.925 13.754Z" fill="#008493"/>
    <path d="M300.126 175.626V325.112H287.708V175.626" fill="#B0D5DF"/>
    <path d="M300.126 175.626V325.112H287.708V175.626" stroke="#008493" stroke-width="2"/>
    <path d="M278.838 312.694H170.626V325.112H278.838V312.694Z" fill="#B0D5DF" stroke="#008493" stroke-width="2"/>
    <path d="M207.035 255.584L201.601 273.111H250.347L243.99 255.584H207.035Z" fill="#B0D5DF"/>
    <path d="M198.046 285.779L189.316 311.054H261.882L253.44 283.887H198.046V285.779Z" fill="white"/>
    <path d="M219.742 207.487H230.135L241.984 243.767H210.22L219.742 207.487Z" fill="white"/>
    <path d="M209.671 244.81L207.971 244.292L207.271 246.584H209.671V244.81ZM221.029 207.557V205.783H219.715L219.332 207.039L221.029 207.557ZM241.041 244.81V246.583H243.441L242.741 244.291L241.041 244.81ZM229.683 207.557L231.383 207.039L230.996 205.783H229.683V207.557ZM201.017 273.193L199.317 272.675L198.617 274.967H201.017V273.193ZM206.426 255.453V253.683H205.108L204.725 254.939L206.426 255.453ZM249.696 273.193V274.967H252.096L251.396 272.675L249.696 273.193ZM244.287 255.453L245.987 254.935L245.604 253.679H244.29L244.287 255.453ZM197.771 283.837V282.063H196.457L196.074 283.319L197.771 283.837ZM189.253 311.777L187.553 311.259L186.853 313.551H189.253V311.777ZM252.941 283.837L254.641 283.319L254.258 282.063H252.944L252.941 283.837ZM261.459 311.777V313.551H263.859L263.159 311.259L261.459 311.777ZM211.368 245.328L222.726 208.075L219.332 207.039L207.974 244.292L211.368 245.328ZM241.041 243.036H209.671V246.584L241.041 246.583V243.036ZM227.986 208.075L239.344 245.328L242.738 244.292L231.38 207.039L227.986 208.075ZM229.686 205.783H221.029V209.331H229.683L229.686 205.783ZM202.714 273.711L208.122 255.971L204.728 254.935L199.32 272.675L202.714 273.711ZM249.695 271.419H201.017V274.967H249.696L249.695 271.419ZM242.59 255.971L247.998 273.711L251.392 272.675L245.984 254.935L242.59 255.971ZM206.426 257.227H244.287V253.683H206.426V257.227ZM196.074 283.319L187.556 311.259L190.95 312.295L199.468 284.355L196.074 283.319ZM252.94 282.063H197.771V285.611H252.94V282.063ZM263.155 311.263L254.637 283.323L251.243 284.359L259.761 312.299L263.155 311.263ZM189.255 313.555H261.461V310.003H189.253L189.255 313.555Z" fill="#008493"/>
    <path d="M262.646 16.906H323.191L365.854 59.568V118.839L323.191 160.101H262.646L221.89 118.839V59.569L262.646 16.906Z" fill="#B0D5DF"/>
    <path d="M291.246 123.477C293.2 123.477 294.784 121.893 294.784 119.939C294.784 117.985 293.2 116.401 291.246 116.401C289.292 116.401 287.708 117.985 287.708 119.939C287.708 121.893 289.292 123.477 291.246 123.477Z" fill="#008493"/>
    <path d="M291.247 61.555H291.246C289.292 61.555 287.708 63.139 287.708 65.093V105.786C287.708 107.74 289.292 109.324 291.246 109.324H291.247C293.201 109.324 294.785 107.74 294.785 105.786V65.093C294.785 63.139 293.201 61.555 291.247 61.555Z" fill="#008493"/>
</svg>
